<?xml version="1.0" encoding="utf-8"?>
<!-- Generator: Adobe Illustrator 24.2.1, SVG Export Plug-In . SVG Version: 6.00 Build 0)  -->
<svg version="1.1" id="Layer_1" xmlns="http://www.w3.org/2000/svg" xmlns:xlink="http://www.w3.org/1999/xlink" x="0px" y="0px"
	 viewBox="0 0 295.29 43.21" style="enable-background:new 0 0 295.29 43.21;" xml:space="preserve">
<style type="text/css">
	.st0{fill:#FFFFFF;}
	.st1{fill:#050F19;}
</style>
<g>
	<polygon class="st0" points="0,0.29 0,43.21 29.65,43.21 29.65,36.99 6.85,36.99 6.85,0.29 	"/>
	<polygon class="st0" points="66.21,0.29 53.94,17.63 41.68,0.29 33.82,0.29 50.44,23.77 50.44,43.21 57.2,43.21 57.2,23.57 
		73.82,0.29 	"/>
	<polygon class="st0" points="117.99,0.29 117.99,31.34 93.71,0.29 87.81,0.29 87.81,43.21 94.47,43.21 94.47,11.98 118.9,43.21 
		124.61,43.21 124.61,0.29 	"/>
	<rect x="143.33" y="0.29" class="st0" width="6.75" height="42.93"/>
	<path class="st0" d="M186.69,8.53l7.86,18.01h-15.72L186.69,8.53z M183.48,0L164.7,43.21h7.19l4.6-10.64h20.41l4.65,10.64h7.23
		L189.99,0H183.48z"/>
	<polygon class="st0" points="213.71,0.29 213.71,6.42 227.89,6.42 227.89,43.21 234.64,43.21 234.64,6.42 248.87,6.42 248.87,0.29 
			"/>
	<polygon class="st0" points="263.91,0.29 263.91,43.21 295.29,43.21 295.29,36.99 270.67,36.99 270.67,23.38 290.07,23.38 
		290.07,17.15 270.67,17.15 270.67,6.42 294.53,6.42 294.53,0.29 	"/>
</g>
</svg>
